Normalized EMG Linear Envelopes
nRows=128
nColumns=4

endheader
time	 med_gas_r	  soleus_r	 tib_ant_r	
2.125	  0.012842	  0.028535	  0.029368	
2.1875	  0.012126	  0.024834	  0.022488	
2.25	  0.010899	  0.022277	  0.015174	
2.3125	  0.010209	  0.020934	  0.009325	
2.375	  0.010388	  0.021065	  0.005823	
2.4375	  0.011136	  0.022565	  0.004244	
2.5	  0.011810	  0.024056	  0.003829	
2.5625	  0.011764	  0.025291	  0.004055	
2.625	  0.011382	  0.026448	  0.004561	
2.6875	  0.011296	  0.026860	  0.005113	
2.75	  0.011809	  0.025709	  0.005410	
2.8125	  0.012572	  0.023859	  0.005415	
2.875	  0.012796	  0.023390	  0.005294	
2.9375	  0.012435	  0.024306	  0.005193	
3	  0.011549	  0.025402	  0.005201	
3.0625	  0.010625	  0.025592	  0.005393	
3.125	  0.010047	  0.024403	  0.005779	
3.1875	  0.009682	  0.022530	  0.006199	
3.25	  0.009330	  0.020758	  0.006476	
3.3125	  0.009207	  0.019434	  0.006721	
3.375	  0.009404	  0.018596	  0.006916	
3.4375	  0.009983	  0.018017	  0.006792	
3.5	  0.011060	  0.017664	  0.006393	
3.5625	  0.012176	  0.017659	  0.005879	
3.625	  0.012584	  0.017927	  0.005479	
3.6875	  0.012329	  0.018607	  0.005235	
3.75	  0.011726	  0.020088	  0.005072	
3.8125	  0.011264	  0.022419	  0.004978	
3.875	  0.010999	  0.025617	  0.004962	
3.9375	  0.010764	  0.028907	  0.005016	
4	  0.010400	  0.030331	  0.005128	
4.0625	  0.010068	  0.028599	  0.005248	
4.125	  0.009804	  0.026495	  0.005350	
4.1875	  0.009824	  0.024968	  0.005462	
4.25	  0.010110	  0.023535	  0.005644	
4.3125	  0.010426	  0.022551	  0.005937	
4.375	  0.010532	  0.021926	  0.006169	
4.4375	  0.010444	  0.020906	  0.006204	
4.5	  0.010041	  0.019203	  0.006017	
4.5625	  0.009285	  0.017540	  0.005567	
4.625	  0.008009	  0.016239	  0.004796	
4.6875	  0.006029	  0.015428	  0.004052	
4.75	  0.004106	  0.017545	  0.004298	
4.8125	  0.005177	  0.027186	  0.007168	
4.875	  0.013820	  0.050074	  0.014488	
4.9375	  0.035731	  0.089541	  0.027188	
5	  0.075158	  0.142503	  0.043385	
5.0625	  0.131565	  0.204119	  0.061085	
5.125	  0.189384	  0.259219	  0.079618	
5.1875	  0.221828	  0.290569	  0.097429	
5.25	  0.231438	  0.307376	  0.112688	
5.3125	  0.235065	  0.325618	  0.123288	
5.375	  0.242405	  0.346577	  0.130967	
5.4375	  0.250613	  0.362438	  0.137524	
5.5	  0.268145	  0.363706	  0.144815	
5.5625	  0.303148	  0.357688	  0.155204	
5.625	  0.351732	  0.350031	  0.165873	
5.6875	  0.403771	  0.353259	  0.172986	
5.75	  0.460292	  0.370581	  0.177392	
5.8125	  0.525664	  0.394904	  0.176185	
5.875	  0.583530	  0.417736	  0.173681	
5.9375	  0.621201	  0.429059	  0.175759	
6	  0.640408	  0.435310	  0.184212	
6.0625	  0.658062	  0.443828	  0.195574	
6.125	  0.671413	  0.454480	  0.209150	
6.1875	  0.680786	  0.462153	  0.223414	
6.25	  0.693951	  0.460231	  0.233307	
6.3125	  0.695857	  0.451509	  0.234229	
6.375	  0.669552	  0.451394	  0.227394	
6.4375	  0.627692	  0.442358	  0.213080	
6.5	  0.597575	  0.421530	  0.198830	
6.5625	  0.583844	  0.404096	  0.193009	
6.625	  0.589752	  0.405302	  0.198409	
6.6875	  0.607919	  0.425139	  0.211955	
6.75	  0.639789	  0.454824	  0.224500	
6.8125	  0.674205	  0.479819	  0.228898	
6.875	  0.691399	  0.506980	  0.230294	
6.9375	  0.698832	  0.530575	  0.233627	
7	  0.705604	  0.549024	  0.231278	
7.0625	  0.698768	  0.534487	  0.221355	
7.125	  0.680295	  0.490798	  0.211390	
7.1875	  0.672010	  0.445448	  0.203914	
7.25	  0.678349	  0.429924	  0.197654	
7.3125	  0.695588	  0.442920	  0.197022	
7.375	  0.708419	  0.475756	  0.201841	
7.4375	  0.710401	  0.517564	  0.205887	
7.5	  0.704113	  0.559105	  0.210440	
7.5625	  0.690811	  0.578684	  0.221101	
7.625	  0.673404	  0.588459	  0.237796	
7.6875	  0.660899	  0.604516	  0.252827	
7.75	  0.662924	  0.622961	  0.259075	
7.8125	  0.672188	  0.633603	  0.255212	
7.875	  0.670695	  0.638867	  0.249735	
7.9375	  0.673283	  0.647623	  0.244427	
8	  0.700671	  0.659594	  0.239548	
8.0625	  0.763591	  0.666786	  0.235754	
8.125	  0.854724	  0.665640	  0.238537	
8.1875	  0.951646	  0.648376	  0.248963	
8.25	  0.999528	  0.626469	  0.258114	
8.3125	  0.972357	  0.611885	  0.256465	
8.375	  0.921588	  0.594031	  0.241263	
8.4375	  0.890974	  0.586108	  0.220173	
8.5	  0.874934	  0.614107	  0.200208	
8.5625	  0.856087	  0.681934	  0.190535	
8.625	  0.828763	  0.762666	  0.195199	
8.6875	  0.795257	  0.792128	  0.209462	
8.75	  0.773461	  0.747378	  0.227738	
8.8125	  0.786357	  0.690532	  0.243087	
8.875	  0.821562	  0.656169	  0.250405	
8.9375	  0.846645	  0.644964	  0.248894	
9	  0.847807	  0.633291	  0.247205	
9.0625	  0.834148	  0.640497	  0.248217	
9.125	  0.818864	  0.651203	  0.252848	
9.1875	  0.817332	  0.649798	  0.262842	
9.25	  0.842347	  0.637632	  0.272700	
9.3125	  0.856368	  0.635872	  0.278532	
9.375	  0.831380	  0.642455	  0.274907	
9.4375	  0.778153	  0.633894	  0.259237	
9.5	  0.702524	  0.611588	  0.226131	
9.5625	  0.613124	  0.577447	  0.186414	
9.625	  0.503587	  0.507145	  0.151813	
9.6875	  0.368553	  0.401854	  0.123450	
9.75	  0.219886	  0.276208	  0.101836	
9.8125	  0.100899	  0.158067	  0.086902	
9.875	  0.030992	  0.072864	  0.075019	
9.9375	  0.001211	  0.027389	  0.065075	
10	 -0.005196	  0.010643	  0.056846	
10.0625	 -0.001702	  0.009008	  0.049556	
